<?xml version="1.0" encoding="utf-8"?>

<svg version="1.1" id="Capa_1" xmlns="http://www.w3.org/2000/svg" xmlns:xlink="http://www.w3.org/1999/xlink" x="0px" y="0px"
	 viewBox="0 0 512 512" style="enable-background:new 0 0 512 512;" xml:space="preserve">
<style type="text/css">
	.st0{fill:#FFFFFF;}
</style>
<g>
	<g>
		<path class="st0" d="M294.6,326c-5.4-7.3-11.4-14.1-18-20.3c-6.6-6.3-13.1-11.9-19.7-17.1c-6.6-5.1-12.6-10.1-18-14.8
			c-5.4-4.7-9.8-9.6-13.2-14.8c-3.4-5.1-5.1-10.4-5.1-15.7c0-7.4,2.4-14.3,7.1-20.8c4.7-6.5,10.5-12.7,17.2-18.8
			c6.8-6.1,13.5-12.7,20.3-19.8c6.8-7.2,12.5-16.7,17.2-28.5c4.7-11.8,7.1-25.3,7.1-40.5c0-18.1-4-35.4-12-52
			c-8-16.6-19.3-29.5-33.8-38.8h41.5L326.8,0H192.3c-19.1,0-38.3,2.1-57.5,6.2c-28.5,6.4-52.5,20.9-72,43.5
			c-19.5,22.7-29.2,48.4-29.2,77.1c0,30.4,10.9,55.6,32.8,75.7c21.8,20.1,48,30.2,78.6,30.2c6.2,0,13.3-0.5,21.5-1.5
			c-0.4,1.6-1.1,3.8-2.2,6.6c-1,2.8-1.8,5-2.5,6.6c-0.6,1.6-1.1,3.6-1.5,6c-0.4,2.4-0.6,4.8-0.6,7.2c0,13.5,6.6,28.8,19.7,45.8
			c-15.6,0.4-31,1.8-46.2,4.2c-15.2,2.4-31.1,6.1-47.7,11.1c-16.6,5-31.5,12.3-44.6,21.8c-13.1,9.5-23,20.9-29.5,34
			C3.8,389.6,0,403.5,0,416c0,13.7,3.1,26.2,9.2,37.4c6.2,11.2,14,20.3,23.7,27.4c9.6,7.1,20.8,13,33.4,17.8
			c12.6,4.8,25.1,8.3,37.5,10.3c12.4,2.1,24.7,3.1,36.8,3.1c55,0,98-13.4,129.2-40.3c28.7-25,43.1-54,43.1-86.8
			c0-11.7-1.7-22.6-5.1-32.8C304.5,342,300,333.3,294.6,326z M176,214.2c-10.5,0-20.4-2.7-29.8-8c-9.4-5.3-17.4-12.3-24-20.8
			c-6.6-8.5-12.3-18.1-17.2-28.8c-4.9-10.7-8.6-21.3-10.9-32c-2.4-10.7-3.5-20.8-3.5-30.5c0-19.7,5.2-36.6,15.7-50.8
			c10.5-14.2,25.2-21.2,44.3-21.2c13.5,0,25.8,4.2,36.8,12.6c11,8.4,19.6,19.1,25.8,32c6.3,12.9,11.1,26.3,14.5,40.2
			c3.4,13.8,5.1,26.9,5.1,39.2c0,20.5-4.5,37-13.4,49.4C210.3,208,195.9,214.2,176,214.2z M261.1,445.2
			c-5.6,9.6-13.3,17.2-22.9,22.6c-9.6,5.4-19.9,9.4-30.9,12c-11,2.6-22.5,3.8-34.6,3.8c-13.1,0-26.2-1.5-39.1-4.6
			c-12.9-3.1-25.3-7.7-37.1-14c-11.8-6.3-21.3-14.9-28.6-25.8c-7.3-11-10.9-23.4-10.9-37.4c0-12.3,2.8-23.3,8.3-32.9
			c5.5-9.6,12.6-17.3,21.2-23.1c8.6-5.7,18.7-10.5,30.2-14.2c11.5-3.7,22.6-6.3,33.2-7.7c10.7-1.4,21.5-2.1,32.6-2.1
			c6.8,0,11.9,0.2,15.4,0.6c1.2,0.8,4.4,3,9.4,6.5c5,3.5,8.4,5.8,10.2,7.1c1.7,1.2,4.9,3.6,9.5,7.1c4.6,3.5,7.9,6.1,9.8,7.8
			c1.9,1.7,4.8,4.4,8.5,7.8c3.7,3.5,6.4,6.5,8.2,9.1c1.7,2.6,3.9,5.7,6.5,9.4c2.6,3.7,4.4,7.2,5.4,10.6c1,3.4,2,7.1,2.9,11.1
			c0.9,4,1.4,8.2,1.4,12.5C269.5,424.3,266.7,435.6,261.1,445.2z"/>
		<polygon class="st0" points="433.2,78.8 433.2,0 393.8,0 393.8,78.8 315.1,78.8 315.1,118.2 393.8,118.2 393.8,196.9 433.2,196.9 
			433.2,118.2 512,118.2 512,78.8 		"/>
	</g>
</g>
</svg>
